<svg xmlns="http://www.w3.org/2000/svg" xmlns:xlink="http://www.w3.org/1999/xlink" preserveAspectRatio="xMidYMid" width="170" height="82" viewBox="0 0 170 82">
  <defs>
    <style>
      .cls-1 {
        fill: #c8ef0f;
        fill-rule: evenodd;
      }
    </style>
  </defs>
  <path d="M167.880,53.934 C166.467,56.471 164.717,58.421 162.631,59.784 C160.543,61.149 158.312,62.052 155.937,62.495 C153.560,62.938 151.409,63.161 149.483,63.161 C147.620,63.161 146.015,63.066 144.667,62.876 C143.896,62.748 143.157,62.622 142.451,62.495 L142.451,52.317 C143.863,52.507 145.100,52.619 146.160,52.650 C147.219,52.683 148.358,52.619 149.579,52.460 C150.798,52.302 151.939,51.969 152.999,51.461 C154.058,50.954 154.940,50.224 155.648,49.273 C156.353,48.322 156.707,47.054 156.707,45.468 L156.707,15.118 L141.155,15.118 C136.871,15.118 133.385,18.560 133.385,22.792 L133.385,40.368 C133.385,52.936 123.032,63.161 110.305,63.161 L102.168,63.161 L102.168,63.144 L88.856,63.144 L88.856,38.292 L63.593,38.292 L63.593,63.144 L51.718,63.144 C51.622,63.155 51.525,63.161 51.426,63.161 C51.010,63.161 50.661,63.160 50.352,63.157 C50.247,63.162 50.142,63.161 50.039,63.154 C48.561,63.138 48.166,63.097 46.391,63.086 C44.956,63.076 42.348,62.738 41.442,62.094 C41.442,62.094 41.442,62.093 41.441,62.093 C40.339,61.520 39.664,60.556 39.384,58.786 C39.192,57.564 39.208,56.332 39.443,55.108 C39.543,54.593 39.686,54.092 39.867,53.600 C40.100,52.967 40.264,52.321 40.375,51.668 C40.691,49.344 40.364,46.781 39.726,44.342 C39.162,42.454 38.469,40.612 37.710,38.794 C37.044,37.369 36.357,36.163 35.770,35.312 C34.037,32.795 32.181,30.161 31.326,27.200 C31.013,26.115 30.868,25.007 30.766,23.887 C30.640,22.506 29.970,20.477 30.260,19.142 C29.852,21.015 29.671,22.177 28.713,23.870 C27.388,26.215 23.808,28.965 20.640,29.891 C17.204,30.894 11.651,30.378 8.014,29.670 C4.378,28.963 3.017,28.789 1.409,27.751 C-0.122,26.762 -0.032,25.793 0.041,25.304 C0.155,24.535 1.484,22.780 2.846,21.480 C5.430,19.015 13.279,10.813 22.767,13.047 C23.839,13.299 24.832,13.531 25.933,13.587 C27.188,13.650 28.408,13.126 29.407,12.365 C29.961,11.620 30.555,10.905 31.164,10.203 C32.990,8.098 34.973,6.152 37.228,4.489 C39.008,3.176 40.910,2.065 42.953,1.200 C44.514,0.540 46.147,0.170 47.848,0.107 C48.560,0.080 49.270,0.013 49.982,0.002 L49.982,-0.001 L63.593,-0.001 L63.593,23.344 L88.856,23.344 L88.856,-0.001 L102.565,-0.001 L102.565,48.042 L110.305,48.042 C114.589,48.042 118.075,44.599 118.075,40.368 L118.075,22.792 C118.075,10.224 128.429,-0.001 141.155,-0.001 L156.707,-0.001 L157.036,-0.001 L170.000,-0.001 L170.000,43.851 C170.000,48.036 169.292,51.398 167.880,53.934 ZM40.580,77.015 L44.606,77.015 L44.606,73.517 L45.828,73.517 L45.828,81.863 L44.606,81.863 L44.606,78.066 L40.580,78.066 L40.580,81.863 L39.371,81.863 L39.371,73.517 L40.580,73.517 L40.580,77.015 ZM52.610,73.517 L56.165,81.863 L55.004,81.863 L54.110,79.750 L49.781,79.750 L48.886,81.863 L47.714,81.863 L51.329,73.517 L52.610,73.517 ZM53.710,78.747 L51.933,74.651 L50.156,78.747 L53.710,78.747 ZM58.940,74.227 C59.339,73.905 59.774,73.682 60.246,73.559 C60.717,73.436 61.159,73.374 61.570,73.374 C61.876,73.374 62.166,73.394 62.440,73.433 C62.714,73.473 62.956,73.513 63.166,73.553 C63.408,73.608 63.633,73.668 63.843,73.732 L63.843,74.747 C63.480,74.651 63.105,74.574 62.718,74.514 C62.332,74.454 61.953,74.434 61.582,74.454 C61.211,74.474 60.858,74.544 60.524,74.664 C60.189,74.783 59.897,74.968 59.647,75.219 C59.397,75.469 59.198,75.795 59.049,76.198 C58.900,76.600 58.825,77.099 58.825,77.696 C58.825,78.293 58.900,78.795 59.049,79.201 C59.198,79.606 59.397,79.935 59.647,80.185 C59.897,80.436 60.189,80.619 60.524,80.735 C60.858,80.851 61.211,80.916 61.582,80.932 C61.953,80.948 62.332,80.928 62.718,80.872 C63.105,80.816 63.480,80.737 63.843,80.633 L63.843,81.613 C63.633,81.692 63.408,81.760 63.166,81.815 C62.956,81.863 62.714,81.907 62.440,81.947 C62.166,81.986 61.876,82.006 61.570,82.006 C61.296,82.006 61.006,81.980 60.699,81.929 C60.393,81.877 60.091,81.789 59.793,81.666 C59.494,81.543 59.210,81.376 58.940,81.165 C58.670,80.954 58.430,80.689 58.221,80.370 C58.011,80.052 57.846,79.672 57.725,79.230 C57.604,78.789 57.544,78.277 57.544,77.696 C57.544,76.828 57.677,76.114 57.942,75.553 C58.209,74.992 58.541,74.550 58.940,74.227 ZM66.974,81.863 L65.765,81.863 L65.765,73.517 L66.974,73.517 L66.974,81.863 ZM74.337,74.580 L71.000,74.580 L71.000,77.015 L74.204,77.015 L74.204,78.078 L71.000,78.078 L71.000,80.813 L74.531,80.813 L74.531,81.863 L69.791,81.863 L69.791,73.517 L74.518,73.517 L74.337,74.580 ZM82.450,80.203 L82.450,73.517 L83.659,73.517 L83.659,81.863 L82.136,81.863 L78.266,75.010 L78.266,81.863 L77.057,81.863 L77.057,73.517 L78.726,73.517 L82.450,80.203 ZM90.569,73.798 C91.113,73.985 91.588,74.256 91.995,74.610 C92.402,74.964 92.725,75.394 92.963,75.899 C93.200,76.405 93.319,76.980 93.319,77.624 C93.319,78.221 93.224,78.779 93.035,79.296 C92.845,79.814 92.576,80.261 92.225,80.639 C91.874,81.017 91.451,81.316 90.956,81.535 C90.460,81.754 89.901,81.863 89.281,81.863 L86.331,81.863 L86.331,73.517 L88.822,73.517 C89.442,73.517 90.024,73.611 90.569,73.798 ZM87.540,80.824 L89.281,80.824 C89.652,80.824 90.004,80.741 90.339,80.574 C90.673,80.406 90.968,80.180 91.222,79.893 C91.475,79.606 91.675,79.268 91.820,78.878 C91.965,78.488 92.038,78.070 92.038,77.624 C92.038,77.171 91.965,76.757 91.820,76.383 C91.675,76.009 91.475,75.688 91.222,75.421 C90.968,75.155 90.673,74.946 90.339,74.795 C90.004,74.643 89.652,74.567 89.281,74.567 L87.540,74.567 L87.540,80.824 ZM99.703,73.517 L103.258,81.863 L102.097,81.863 L101.203,79.750 L96.874,79.750 L95.979,81.863 L94.806,81.863 L98.422,73.517 L99.703,73.517 ZM100.803,78.747 L99.026,74.651 L97.249,78.747 L100.803,78.747 ZM109.271,79.931 C109.710,80.154 110.118,80.265 110.497,80.265 C110.804,80.265 111.058,80.208 111.259,80.093 C111.460,79.977 111.565,79.796 111.573,79.549 C111.573,79.406 111.535,79.281 111.458,79.173 C111.382,79.066 111.279,78.970 111.150,78.887 C111.021,78.803 110.870,78.731 110.697,78.672 C110.523,78.612 110.344,78.551 110.159,78.487 C109.861,78.391 109.563,78.284 109.265,78.164 C108.967,78.045 108.699,77.890 108.461,77.699 C108.223,77.508 108.030,77.268 107.881,76.977 C107.731,76.686 107.657,76.318 107.657,75.873 C107.657,75.435 107.737,75.059 107.899,74.745 C108.060,74.430 108.275,74.174 108.545,73.975 C108.815,73.776 109.126,73.629 109.476,73.533 C109.827,73.438 110.187,73.390 110.558,73.390 C111.033,73.390 111.507,73.475 111.978,73.646 C112.450,73.818 112.886,74.051 113.290,74.345 L112.588,75.968 C112.226,75.714 111.861,75.511 111.495,75.360 C111.128,75.208 110.795,75.133 110.497,75.133 C110.215,75.133 109.988,75.184 109.815,75.288 C109.641,75.391 109.555,75.554 109.555,75.777 C109.555,75.897 109.591,76.002 109.664,76.094 C109.736,76.185 109.835,76.267 109.960,76.338 C110.084,76.410 110.228,76.477 110.389,76.541 C110.550,76.605 110.723,76.664 110.908,76.720 C111.206,76.824 111.511,76.935 111.821,77.054 C112.131,77.174 112.409,77.333 112.655,77.532 C112.901,77.731 113.102,77.982 113.259,78.284 C113.417,78.586 113.495,78.969 113.495,79.430 C113.495,79.875 113.410,80.259 113.241,80.582 C113.072,80.904 112.844,81.170 112.558,81.382 C112.272,81.592 111.946,81.747 111.579,81.847 C111.213,81.946 110.836,81.996 110.449,81.996 C109.885,81.996 109.323,81.879 108.763,81.644 C108.203,81.409 107.705,81.065 107.270,80.612 L108.020,79.000 C108.414,79.398 108.831,79.708 109.271,79.931 ZM120.578,73.521 L123.817,81.865 L121.460,81.865 L120.735,80.086 L117.532,80.086 L116.807,81.865 L114.607,81.865 L117.689,73.521 L120.578,73.521 ZM120.179,78.523 C120.115,78.292 120.054,78.083 119.998,77.896 C119.941,77.709 119.875,77.496 119.798,77.258 C119.722,77.018 119.645,76.778 119.569,76.535 C119.492,76.293 119.416,76.058 119.339,75.831 C119.262,75.604 119.196,75.411 119.140,75.252 C118.922,75.865 118.729,76.410 118.560,76.888 C118.487,77.094 118.416,77.295 118.348,77.490 C118.279,77.685 118.217,77.858 118.161,78.009 C118.104,78.161 118.048,78.332 117.992,78.523 L120.179,78.523 ZM130.961,79.191 L130.961,73.521 L133.016,73.521 L133.016,81.865 L130.187,81.865 L127.238,76.159 L127.238,81.865 L125.244,81.865 L125.244,73.521 L128.144,73.521 L130.961,79.191 ZM139.989,80.134 C140.174,80.150 140.348,80.140 140.509,80.104 C140.670,80.068 140.803,79.999 140.908,79.895 C141.012,79.792 141.065,79.641 141.065,79.442 L141.065,73.521 L143.313,73.521 L143.313,79.573 C143.313,80.098 143.224,80.520 143.047,80.838 C142.870,81.157 142.650,81.401 142.389,81.572 C142.126,81.744 141.846,81.857 141.548,81.913 C141.250,81.968 140.980,81.996 140.738,81.996 C140.448,81.996 140.190,81.986 139.965,81.967 C139.739,81.946 139.546,81.920 139.385,81.889 C139.199,81.857 139.038,81.821 138.901,81.781 L138.901,79.931 C139.119,79.995 139.308,80.040 139.469,80.068 C139.630,80.096 139.804,80.118 139.989,80.134 ZM145.894,75.049 C146.115,74.731 146.369,74.466 146.655,74.256 C146.941,74.045 147.239,73.875 147.549,73.748 C147.859,73.621 148.176,73.531 148.498,73.480 C148.821,73.428 149.123,73.402 149.405,73.402 C149.832,73.402 150.293,73.464 150.789,73.587 C151.284,73.710 151.744,73.933 152.167,74.256 C152.590,74.578 152.940,75.018 153.218,75.574 C153.496,76.131 153.635,76.844 153.635,77.711 C153.635,78.292 153.571,78.801 153.442,79.239 C153.313,79.677 153.140,80.055 152.922,80.372 C152.705,80.691 152.453,80.956 152.167,81.166 C151.881,81.377 151.580,81.545 151.266,81.668 C150.952,81.791 150.633,81.877 150.311,81.925 C149.989,81.972 149.687,81.996 149.405,81.996 C148.978,81.996 148.518,81.936 148.027,81.817 C147.535,81.698 147.078,81.481 146.655,81.166 C146.232,80.852 145.879,80.417 145.597,79.859 C145.315,79.302 145.174,78.586 145.174,77.711 C145.174,77.130 145.239,76.621 145.368,76.183 C145.497,75.745 145.672,75.367 145.894,75.049 ZM147.604,78.695 C147.676,79.018 147.789,79.302 147.942,79.549 C148.095,79.796 148.293,79.993 148.534,80.140 C148.776,80.287 149.066,80.361 149.405,80.361 C149.743,80.361 150.033,80.287 150.275,80.140 C150.517,79.993 150.714,79.796 150.867,79.549 C151.020,79.302 151.133,79.018 151.206,78.695 C151.278,78.374 151.314,78.041 151.314,77.699 C151.314,77.341 151.278,77.001 151.206,76.678 C151.133,76.356 151.020,76.074 150.867,75.831 C150.714,75.588 150.517,75.395 150.275,75.252 C150.033,75.109 149.743,75.037 149.405,75.037 C149.066,75.037 148.776,75.109 148.534,75.252 C148.293,75.395 148.095,75.588 147.942,75.831 C147.789,76.074 147.676,76.356 147.604,76.678 C147.531,77.001 147.495,77.341 147.495,77.699 C147.495,78.041 147.531,78.374 147.604,78.695 ZM157.134,79.931 C157.573,80.154 157.982,80.265 158.361,80.265 C158.667,80.265 158.921,80.208 159.123,80.093 C159.324,79.977 159.429,79.796 159.437,79.549 C159.437,79.406 159.399,79.281 159.322,79.173 C159.245,79.066 159.143,78.970 159.014,78.887 C158.885,78.803 158.734,78.731 158.560,78.672 C158.387,78.612 158.208,78.551 158.023,78.487 C157.725,78.391 157.426,78.284 157.128,78.164 C156.830,78.045 156.562,77.890 156.324,77.699 C156.087,77.508 155.893,77.268 155.744,76.977 C155.595,76.686 155.521,76.318 155.521,75.873 C155.521,75.435 155.601,75.059 155.763,74.745 C155.924,74.430 156.139,74.174 156.409,73.975 C156.679,73.776 156.989,73.629 157.340,73.533 C157.690,73.438 158.051,73.390 158.422,73.390 C158.897,73.390 159.371,73.475 159.842,73.646 C160.313,73.818 160.750,74.051 161.153,74.345 L160.452,75.968 C160.090,75.714 159.725,75.511 159.358,75.360 C158.992,75.208 158.659,75.133 158.361,75.133 C158.079,75.133 157.851,75.184 157.678,75.288 C157.505,75.391 157.419,75.554 157.419,75.777 C157.419,75.897 157.455,76.002 157.527,76.094 C157.600,76.185 157.698,76.267 157.823,76.338 C157.948,76.410 158.091,76.477 158.252,76.541 C158.413,76.605 158.587,76.664 158.772,76.720 C159.070,76.824 159.374,76.935 159.685,77.054 C159.995,77.174 160.273,77.333 160.519,77.532 C160.764,77.731 160.966,77.982 161.123,78.284 C161.280,78.586 161.359,78.969 161.359,79.430 C161.359,79.875 161.274,80.259 161.105,80.582 C160.936,80.904 160.708,81.170 160.422,81.382 C160.136,81.592 159.810,81.747 159.443,81.847 C159.076,81.946 158.699,81.996 158.313,81.996 C157.749,81.996 157.187,81.879 156.627,81.644 C156.067,81.409 155.569,81.065 155.134,80.612 L155.884,79.000 C156.278,79.398 156.695,79.708 157.134,79.931 ZM166.194,71.349 L168.200,71.349 L166.592,73.092 L165.118,73.092 L166.194,71.349 ZM168.792,75.097 L165.359,75.097 L165.359,76.816 L168.925,76.816 L168.925,78.403 L165.359,78.403 L165.359,80.289 L169.203,80.289 L169.203,81.865 L163.124,81.865 L163.099,73.521 L169.070,73.521 L168.792,75.097 Z" class="cls-1"/>
</svg>
